<?xml version="1.0" encoding="utf-8" standalone="no"?>
<!DOCTYPE svg PUBLIC "-//W3C//DTD SVG 1.1//EN"
  "http://www.w3.org/Graphics/SVG/1.1/DTD/svg11.dtd">
<svg xmlns:xlink="http://www.w3.org/1999/xlink" width="713.9975pt" height="568.8pt" viewBox="0 0 713.9975 568.8" xmlns="http://www.w3.org/2000/svg" version="1.1">
 <metadata>
  <rdf:RDF xmlns:dc="http://purl.org/dc/elements/1.1/" xmlns:cc="http://creativecommons.org/ns#" xmlns:rdf="http://www.w3.org/1999/02/22-rdf-syntax-ns#">
   <cc:Work>
    <dc:type rdf:resource="http://purl.org/dc/dcmitype/StillImage"/>
    <dc:date>2026-08-11T15:15:16.084680</dc:date>
    <dc:format>image/svg+xml</dc:format>
    <dc:creator>
     <cc:Agent>
      <dc:title>Matplotlib v3.11.1, https://matplotlib.org/</dc:title>
     </cc:Agent>
    </dc:creator>
   </cc:Work>
  </rdf:RDF>
 </metadata>
 <defs>
  <style type="text/css">*{stroke-linejoin: round; stroke-linecap: butt}</style>
 </defs>
 <g id="figure_1">
  <g id="patch_1">
   <path d="M 0 568.8 
L 713.9975 568.8 
L 713.9975 0 
L 0 0 
z
" style="fill: #ffffff"/>
  </g>
  <g id="axes_1">
   <g id="patch_2">
    <path d="M 52.4375 372.3 
L 706.7975 372.3 
L 706.7975 22.8 
L 52.4375 22.8 
z
" style="fill: #ffffff"/>
   </g>
   <g id="patch_3">
    <path d="M 276.866756 372.3 
L 281.096245 372.3 
L 281.096245 371.126935 
L 276.866756 371.126935 
z
" clip-path="url(#p35de490345)" style="fill: #1f77b4; fill-opacity: 0.5; stroke: #000000; stroke-width: 0.757123; stroke-linejoin: miter"/>
   </g>
   <g id="patch_4">
    <path d="M 281.096245 372.3 
L 285.325733 372.3 
L 285.325733 370.247137 
L 281.096245 370.247137 
z
" clip-path="url(#p35de490345)" style="fill: #1f77b4; fill-opacity: 0.5; stroke: #000000; stroke-width: 0.757123; stroke-linejoin: miter"/>
   </g>
   <g id="patch_5">
    <path d="M 285.325733 372.3 
L 289.555222 372.3 
L 289.555222 369.220705 
L 285.325733 369.220705 
z
" clip-path="url(#p35de490345)" style="fill: #1f77b4; fill-opacity: 0.5; stroke: #000000; stroke-width: 0.757123; stroke-linejoin: miter"/>
   </g>
   <g id="patch_6">
    <path d="M 289.555222 372.3 
L 293.784711 372.3 
L 293.784711 368.487539 
L 289.555222 368.487539 
z
" clip-path="url(#p35de490345)" style="fill: #1f77b4; fill-opacity: 0.5; stroke: #000000; stroke-width: 0.757123; stroke-linejoin: miter"/>
   </g>
   <g id="patch_7">
    <path d="M 293.784711 372.3 
L 298.014199 372.3 
L 298.014199 366.288043 
L 293.784711 366.288043 
z
" clip-path="url(#p35de490345)" style="fill: #1f77b4; fill-opacity: 0.5; stroke: #000000; stroke-width: 0.757123; stroke-linejoin: miter"/>
   </g>
   <g id="patch_8">
    <path d="M 298.014199 372.3 
L 302.243688 372.3 
L 302.243688 365.848143 
L 298.014199 365.848143 
z
" clip-path="url(#p35de490345)" style="fill: #1f77b4; fill-opacity: 0.5; stroke: #000000; stroke-width: 0.757123; stroke-linejoin: miter"/>
   </g>
   <g id="patch_9">
    <path d="M 302.243688 372.3 
L 306.473176 372.3 
L 306.473176 359.982819 
L 302.243688 359.982819 
z
" clip-path="url(#p35de490345)" style="fill: #1f77b4; fill-opacity: 0.5; stroke: #000000; stroke-width: 0.757123; stroke-linejoin: miter"/>
   </g>
   <g id="patch_10">
    <path d="M 306.473176 372.3 
L 310.702665 372.3 
L 310.702665 351.917999 
L 306.473176 351.917999 
z
" clip-path="url(#p35de490345)" style="fill: #1f77b4; fill-opacity: 0.5; stroke: #000000; stroke-width: 0.757123; stroke-linejoin: miter"/>
   </g>
   <g id="patch_11">
    <path d="M 310.702665 372.3 
L 314.932154 372.3 
L 314.932154 342.826746 
L 310.702665 342.826746 
z
" clip-path="url(#p35de490345)" style="fill: #1f77b4; fill-opacity: 0.5; stroke: #000000; stroke-width: 0.757123; stroke-linejoin: miter"/>
   </g>
   <g id="patch_12">
    <path d="M 314.932154 372.3 
L 319.161642 372.3 
L 319.161642 332.12253 
L 314.932154 332.12253 
z
" clip-path="url(#p35de490345)" style="fill: #1f77b4; fill-opacity: 0.5; stroke: #000000; stroke-width: 0.757123; stroke-linejoin: miter"/>
   </g>
   <g id="patch_13">
    <path d="M 319.161642 372.3 
L 323.391131 372.3 
L 323.391131 326.843738 
L 319.161642 326.843738 
z
" clip-path="url(#p35de490345)" style="fill: #1f77b4; fill-opacity: 0.5; stroke: #000000; stroke-width: 0.757123; stroke-linejoin: miter"/>
   </g>
   <g id="patch_14">
    <path d="M 323.391131 372.3 
L 327.620619 372.3 
L 327.620619 317.752486 
L 323.391131 317.752486 
z
" clip-path="url(#p35de490345)" style="fill: #1f77b4; fill-opacity: 0.5; stroke: #000000; stroke-width: 0.757123; stroke-linejoin: miter"/>
   </g>
   <g id="patch_15">
    <path d="M 327.620619 372.3 
L 331.850108 372.3 
L 331.850108 300.44978 
L 327.620619 300.44978 
z
" clip-path="url(#p35de490345)" style="fill: #1f77b4; fill-opacity: 0.5; stroke: #000000; stroke-width: 0.757123; stroke-linejoin: miter"/>
   </g>
   <g id="patch_16">
    <path d="M 331.850108 372.3 
L 336.079596 372.3 
L 336.079596 267.750598 
L 331.850108 267.750598 
z
" clip-path="url(#p35de490345)" style="fill: #1f77b4; fill-opacity: 0.5; stroke: #000000; stroke-width: 0.757123; stroke-linejoin: miter"/>
   </g>
   <g id="patch_17">
    <path d="M 336.079596 372.3 
L 340.309085 372.3 
L 340.309085 246.635431 
L 336.079596 246.635431 
z
" clip-path="url(#p35de490345)" style="fill: #1f77b4; fill-opacity: 0.5; stroke: #000000; stroke-width: 0.757123; stroke-linejoin: miter"/>
   </g>
   <g id="patch_18">
    <path d="M 340.309085 372.3 
L 344.538574 372.3 
L 344.538574 215.109314 
L 340.309085 215.109314 
z
" clip-path="url(#p35de490345)" style="fill: #1f77b4; fill-opacity: 0.5; stroke: #000000; stroke-width: 0.757123; stroke-linejoin: miter"/>
   </g>
   <g id="patch_19">
    <path d="M 344.538574 372.3 
L 348.768062 372.3 
L 348.768062 222.880868 
L 344.538574 222.880868 
z
" clip-path="url(#p35de490345)" style="fill: #1f77b4; fill-opacity: 0.5; stroke: #000000; stroke-width: 0.757123; stroke-linejoin: miter"/>
   </g>
   <g id="patch_20">
    <path d="M 348.768062 372.3 
L 352.997551 372.3 
L 352.997551 195.020579 
L 348.768062 195.020579 
z
" clip-path="url(#p35de490345)" style="fill: #1f77b4; fill-opacity: 0.5; stroke: #000000; stroke-width: 0.757123; stroke-linejoin: miter"/>
   </g>
   <g id="patch_21">
    <path d="M 352.997551 372.3 
L 357.227039 372.3 
L 357.227039 176.251542 
L 352.997551 176.251542 
z
" clip-path="url(#p35de490345)" style="fill: #1f77b4; fill-opacity: 0.5; stroke: #000000; stroke-width: 0.757123; stroke-linejoin: miter"/>
   </g>
   <g id="patch_22">
    <path d="M 357.227039 372.3 
L 361.456528 372.3 
L 361.456528 163.641095 
L 357.227039 163.641095 
z
" clip-path="url(#p35de490345)" style="fill: #1f77b4; fill-opacity: 0.5; stroke: #000000; stroke-width: 0.757123; stroke-linejoin: miter"/>
   </g>
   <g id="patch_23">
    <path d="M 361.456528 372.3 
L 365.686017 372.3 
L 365.686017 142.525928 
L 361.456528 142.525928 
z
" clip-path="url(#p35de490345)" style="fill: #1f77b4; fill-opacity: 0.5; stroke: #000000; stroke-width: 0.757123; stroke-linejoin: miter"/>
   </g>
   <g id="patch_24">
    <path d="M 365.686017 372.3 
L 369.915505 372.3 
L 369.915505 128.742417 
L 365.686017 128.742417 
z
" clip-path="url(#p35de490345)" style="fill: #1f77b4; fill-opacity: 0.5; stroke: #000000; stroke-width: 0.757123; stroke-linejoin: miter"/>
   </g>
   <g id="patch_25">
    <path d="M 369.915505 372.3 
L 374.144994 372.3 
L 374.144994 156.895972 
L 369.915505 156.895972 
z
" clip-path="url(#p35de490345)" style="fill: #1f77b4; fill-opacity: 0.5; stroke: #000000; stroke-width: 0.757123; stroke-linejoin: miter"/>
   </g>
   <g id="patch_26">
    <path d="M 374.144994 372.3 
L 378.374482 372.3 
L 378.374482 114.519006 
L 374.144994 114.519006 
z
" clip-path="url(#p35de490345)" style="fill: #1f77b4; fill-opacity: 0.5; stroke: #000000; stroke-width: 0.757123; stroke-linejoin: miter"/>
   </g>
   <g id="patch_27">
    <path d="M 378.374482 372.3 
L 382.603971 372.3 
L 382.603971 114.812272 
L 378.374482 114.812272 
z
" clip-path="url(#p35de490345)" style="fill: #1f77b4; fill-opacity: 0.5; stroke: #000000; stroke-width: 0.757123; stroke-linejoin: miter"/>
   </g>
   <g id="patch_28">
    <path d="M 382.603971 372.3 
L 386.83346 372.3 
L 386.83346 99.562429 
L 382.603971 99.562429 
z
" clip-path="url(#p35de490345)" style="fill: #1f77b4; fill-opacity: 0.5; stroke: #000000; stroke-width: 0.757123; stroke-linejoin: miter"/>
   </g>
   <g id="patch_29">
    <path d="M 386.83346 372.3 
L 391.062948 372.3 
L 391.062948 110.266646 
L 386.83346 110.266646 
z
" clip-path="url(#p35de490345)" style="fill: #1f77b4; fill-opacity: 0.5; stroke: #000000; stroke-width: 0.757123; stroke-linejoin: miter"/>
   </g>
   <g id="patch_30">
    <path d="M 391.062948 372.3 
L 395.292437 372.3 
L 395.292437 141.352863 
L 391.062948 141.352863 
z
" clip-path="url(#p35de490345)" style="fill: #1f77b4; fill-opacity: 0.5; stroke: #000000; stroke-width: 0.757123; stroke-linejoin: miter"/>
   </g>
   <g id="patch_31">
    <path d="M 395.292437 372.3 
L 399.521925 372.3 
L 399.521925 117.011768 
L 395.292437 117.011768 
z
" clip-path="url(#p35de490345)" style="fill: #1f77b4; fill-opacity: 0.5; stroke: #000000; stroke-width: 0.757123; stroke-linejoin: miter"/>
   </g>
   <g id="patch_32">
    <path d="M 399.521925 372.3 
L 403.751414 372.3 
L 403.751414 129.035683 
L 399.521925 129.035683 
z
" clip-path="url(#p35de490345)" style="fill: #1f77b4; fill-opacity: 0.5; stroke: #000000; stroke-width: 0.757123; stroke-linejoin: miter"/>
   </g>
   <g id="patch_33">
    <path d="M 403.751414 372.3 
L 407.980902 372.3 
L 407.980902 111.87961 
L 403.751414 111.87961 
z
" clip-path="url(#p35de490345)" style="fill: #1f77b4; fill-opacity: 0.5; stroke: #000000; stroke-width: 0.757123; stroke-linejoin: miter"/>
   </g>
   <g id="patch_34">
    <path d="M 407.980902 372.3 
L 412.210391 372.3 
L 412.210391 135.487539 
L 407.980902 135.487539 
z
" clip-path="url(#p35de490345)" style="fill: #1f77b4; fill-opacity: 0.5; stroke: #000000; stroke-width: 0.757123; stroke-linejoin: miter"/>
   </g>
   <g id="patch_35">
    <path d="M 412.210391 372.3 
L 416.43988 372.3 
L 416.43988 134.607741 
L 412.210391 134.607741 
z
" clip-path="url(#p35de490345)" style="fill: #1f77b4; fill-opacity: 0.5; stroke: #000000; stroke-width: 0.757123; stroke-linejoin: miter"/>
   </g>
   <g id="patch_36">
    <path d="M 416.43988 372.3 
L 420.669368 372.3 
L 420.669368 154.256576 
L 416.43988 154.256576 
z
" clip-path="url(#p35de490345)" style="fill: #1f77b4; fill-opacity: 0.5; stroke: #000000; stroke-width: 0.757123; stroke-linejoin: miter"/>
   </g>
   <g id="patch_37">
    <path d="M 420.669368 372.3 
L 424.898857 372.3 
L 424.898857 137.540403 
L 420.669368 137.540403 
z
" clip-path="url(#p35de490345)" style="fill: #1f77b4; fill-opacity: 0.5; stroke: #000000; stroke-width: 0.757123; stroke-linejoin: miter"/>
   </g>
   <g id="patch_38">
    <path d="M 424.898857 372.3 
L 429.128345 372.3 
L 429.128345 123.903524 
L 424.898857 123.903524 
z
" clip-path="url(#p35de490345)" style="fill: #1f77b4; fill-opacity: 0.5; stroke: #000000; stroke-width: 0.757123; stroke-linejoin: miter"/>
   </g>
   <g id="patch_39">
    <path d="M 429.128345 372.3 
L 433.357834 372.3 
L 433.357834 123.756891 
L 429.128345 123.756891 
z
" clip-path="url(#p35de490345)" style="fill: #1f77b4; fill-opacity: 0.5; stroke: #000000; stroke-width: 0.757123; stroke-linejoin: miter"/>
   </g>
   <g id="patch_40">
    <path d="M 433.357834 372.3 
L 437.587323 372.3 
L 437.587323 115.105538 
L 433.357834 115.105538 
z
" clip-path="url(#p35de490345)" style="fill: #1f77b4; fill-opacity: 0.5; stroke: #000000; stroke-width: 0.757123; stroke-linejoin: miter"/>
   </g>
   <g id="patch_41">
    <path d="M 437.587323 372.3 
L 441.816811 372.3 
L 441.816811 120.530963 
L 437.587323 120.530963 
z
" clip-path="url(#p35de490345)" style="fill: #1f77b4; fill-opacity: 0.5; stroke: #000000; stroke-width: 0.757123; stroke-linejoin: miter"/>
   </g>
   <g id="patch_42">
    <path d="M 441.816811 372.3 
L 446.0463 372.3 
L 446.0463 143.405727 
L 441.816811 143.405727 
z
" clip-path="url(#p35de490345)" style="fill: #1f77b4; fill-opacity: 0.5; stroke: #000000; stroke-width: 0.757123; stroke-linejoin: miter"/>
   </g>
   <g id="patch_43">
    <path d="M 446.0463 372.3 
L 450.275788 372.3 
L 450.275788 90.031278 
L 446.0463 90.031278 
z
" clip-path="url(#p35de490345)" style="fill: #1f77b4; fill-opacity: 0.5; stroke: #000000; stroke-width: 0.757123; stroke-linejoin: miter"/>
   </g>
   <g id="patch_44">
    <path d="M 450.275788 372.3 
L 454.505277 372.3 
L 454.505277 69.502643 
L 450.275788 69.502643 
z
" clip-path="url(#p35de490345)" style="fill: #1f77b4; fill-opacity: 0.5; stroke: #000000; stroke-width: 0.757123; stroke-linejoin: miter"/>
   </g>
   <g id="patch_45">
    <path d="M 454.505277 372.3 
L 458.734766 372.3 
L 458.734766 83.726054 
L 454.505277 83.726054 
z
" clip-path="url(#p35de490345)" style="fill: #1f77b4; fill-opacity: 0.5; stroke: #000000; stroke-width: 0.757123; stroke-linejoin: miter"/>
   </g>
   <g id="patch_46">
    <path d="M 458.734766 372.3 
L 462.964254 372.3 
L 462.964254 57.625362 
L 458.734766 57.625362 
z
" clip-path="url(#p35de490345)" style="fill: #1f77b4; fill-opacity: 0.5; stroke: #000000; stroke-width: 0.757123; stroke-linejoin: miter"/>
   </g>
   <g id="patch_47">
    <path d="M 462.964254 372.3 
L 467.193743 372.3 
L 467.193743 97.949465 
L 462.964254 97.949465 
z
" clip-path="url(#p35de490345)" style="fill: #1f77b4; fill-opacity: 0.5; stroke: #000000; stroke-width: 0.757123; stroke-linejoin: miter"/>
   </g>
   <g id="patch_48">
    <path d="M 467.193743 372.3 
L 471.423231 372.3 
L 471.423231 51.466772 
L 467.193743 51.466772 
z
" clip-path="url(#p35de490345)" style="fill: #1f77b4; fill-opacity: 0.5; stroke: #000000; stroke-width: 0.757123; stroke-linejoin: miter"/>
   </g>
   <g id="patch_49">
    <path d="M 471.423231 372.3 
L 475.65272 372.3 
L 475.65272 41.642354 
L 471.423231 41.642354 
z
" clip-path="url(#p35de490345)" style="fill: #1f77b4; fill-opacity: 0.5; stroke: #000000; stroke-width: 0.757123; stroke-linejoin: miter"/>
   </g>
   <g id="patch_50">
    <path d="M 475.65272 372.3 
L 479.882209 372.3 
L 479.882209 39.442857 
L 475.65272 39.442857 
z
" clip-path="url(#p35de490345)" style="fill: #1f77b4; fill-opacity: 0.5; stroke: #000000; stroke-width: 0.757123; stroke-linejoin: miter"/>
   </g>
   <g id="patch_51">
    <path d="M 479.882209 372.3 
L 484.111697 372.3 
L 484.111697 50.147074 
L 479.882209 50.147074 
z
" clip-path="url(#p35de490345)" style="fill: #1f77b4; fill-opacity: 0.5; stroke: #000000; stroke-width: 0.757123; stroke-linejoin: miter"/>
   </g>
   <g id="patch_52">
    <path d="M 484.111697 372.3 
L 488.341186 372.3 
L 488.341186 46.041347 
L 484.111697 46.041347 
z
" clip-path="url(#p35de490345)" style="fill: #1f77b4; fill-opacity: 0.5; stroke: #000000; stroke-width: 0.757123; stroke-linejoin: miter"/>
   </g>
   <g id="patch_53">
    <path d="M 488.341186 372.3 
L 492.570674 372.3 
L 492.570674 96.189868 
L 488.341186 96.189868 
z
" clip-path="url(#p35de490345)" style="fill: #1f77b4; fill-opacity: 0.5; stroke: #000000; stroke-width: 0.757123; stroke-linejoin: miter"/>
   </g>
   <g id="patch_54">
    <path d="M 492.570674 372.3 
L 496.800163 372.3 
L 496.800163 69.35601 
L 492.570674 69.35601 
z
" clip-path="url(#p35de490345)" style="fill: #1f77b4; fill-opacity: 0.5; stroke: #000000; stroke-width: 0.757123; stroke-linejoin: miter"/>
   </g>
   <g id="patch_55">
    <path d="M 496.800163 372.3 
L 501.029651 372.3 
L 501.029651 96.336501 
L 496.800163 96.336501 
z
" clip-path="url(#p35de490345)" style="fill: #1f77b4; fill-opacity: 0.5; stroke: #000000; stroke-width: 0.757123; stroke-linejoin: miter"/>
   </g>
   <g id="patch_56">
    <path d="M 501.029651 372.3 
L 505.25914 372.3 
L 505.25914 124.343424 
L 501.029651 124.343424 
z
" clip-path="url(#p35de490345)" style="fill: #1f77b4; fill-opacity: 0.5; stroke: #000000; stroke-width: 0.757123; stroke-linejoin: miter"/>
   </g>
   <g id="patch_57">
    <path d="M 505.25914 372.3 
L 509.488629 372.3 
L 509.488629 149.71095 
L 505.25914 149.71095 
z
" clip-path="url(#p35de490345)" style="fill: #1f77b4; fill-opacity: 0.5; stroke: #000000; stroke-width: 0.757123; stroke-linejoin: miter"/>
   </g>
   <g id="patch_58">
    <path d="M 509.488629 372.3 
L 513.718117 372.3 
L 513.718117 215.255947 
L 509.488629 215.255947 
z
" clip-path="url(#p35de490345)" style="fill: #1f77b4; fill-opacity: 0.5; stroke: #000000; stroke-width: 0.757123; stroke-linejoin: miter"/>
   </g>
   <g id="patch_59">
    <path d="M 513.718117 372.3 
L 517.947606 372.3 
L 517.947606 224.493833 
L 513.718117 224.493833 
z
" clip-path="url(#p35de490345)" style="fill: #1f77b4; fill-opacity: 0.5; stroke: #000000; stroke-width: 0.757123; stroke-linejoin: miter"/>
   </g>
   <g id="patch_60">
    <path d="M 517.947606 372.3 
L 522.177094 372.3 
L 522.177094 249.128194 
L 517.947606 249.128194 
z
" clip-path="url(#p35de490345)" style="fill: #1f77b4; fill-opacity: 0.5; stroke: #000000; stroke-width: 0.757123; stroke-linejoin: miter"/>
   </g>
   <g id="patch_61">
    <path d="M 522.177094 372.3 
L 526.406583 372.3 
L 526.406583 264.08477 
L 522.177094 264.08477 
z
" clip-path="url(#p35de490345)" style="fill: #1f77b4; fill-opacity: 0.5; stroke: #000000; stroke-width: 0.757123; stroke-linejoin: miter"/>
   </g>
   <g id="patch_62">
    <path d="M 526.406583 372.3 
L 530.636072 372.3 
L 530.636072 281.53411 
L 526.406583 281.53411 
z
" clip-path="url(#p35de490345)" style="fill: #1f77b4; fill-opacity: 0.5; stroke: #000000; stroke-width: 0.757123; stroke-linejoin: miter"/>
   </g>
   <g id="patch_63">
    <path d="M 530.636072 372.3 
L 534.86556 372.3 
L 534.86556 301.916111 
L 530.636072 301.916111 
z
" clip-path="url(#p35de490345)" style="fill: #1f77b4; fill-opacity: 0.5; stroke: #000000; stroke-width: 0.757123; stroke-linejoin: miter"/>
   </g>
   <g id="patch_64">
    <path d="M 534.86556 372.3 
L 539.095049 372.3 
L 539.095049 318.192385 
L 534.86556 318.192385 
z
" clip-path="url(#p35de490345)" style="fill: #1f77b4; fill-opacity: 0.5; stroke: #000000; stroke-width: 0.757123; stroke-linejoin: miter"/>
   </g>
   <g id="patch_65">
    <path d="M 539.095049 372.3 
L 543.324537 372.3 
L 543.324537 329.483134 
L 539.095049 329.483134 
z
" clip-path="url(#p35de490345)" style="fill: #1f77b4; fill-opacity: 0.5; stroke: #000000; stroke-width: 0.757123; stroke-linejoin: miter"/>
   </g>
   <g id="patch_66">
    <path d="M 543.324537 372.3 
L 547.554026 372.3 
L 547.554026 347.372373 
L 543.324537 347.372373 
z
" clip-path="url(#p35de490345)" style="fill: #1f77b4; fill-opacity: 0.5; stroke: #000000; stroke-width: 0.757123; stroke-linejoin: miter"/>
   </g>
   <g id="patch_67">
    <path d="M 547.554026 372.3 
L 551.783515 372.3 
L 551.783515 360.715985 
L 547.554026 360.715985 
z
" clip-path="url(#p35de490345)" style="fill: #1f77b4; fill-opacity: 0.5; stroke: #000000; stroke-width: 0.757123; stroke-linejoin: miter"/>
   </g>
   <g id="patch_68">
    <path d="M 551.783515 372.3 
L 556.013003 372.3 
L 556.013003 369.513971 
L 551.783515 369.513971 
z
" clip-path="url(#p35de490345)" style="fill: #1f77b4; fill-opacity: 0.5; stroke: #000000; stroke-width: 0.757123; stroke-linejoin: miter"/>
   </g>
   <g id="patch_69">
    <path d="M 556.013003 372.3 
L 560.242492 372.3 
L 560.242492 371.713468 
L 556.013003 371.713468 
z
" clip-path="url(#p35de490345)" style="fill: #1f77b4; fill-opacity: 0.5; stroke: #000000; stroke-width: 0.757123; stroke-linejoin: miter"/>
   </g>
   <g id="matplotlib.axis_1">
    <g id="xtick_1">
     <g id="line2d_1">
      <defs>
       <path id="mede54884b3" d="M 0 0 
L 0 3.5 
" style="stroke: #000000; stroke-width: 0.8"/>
      </defs>
      <g>
       <use xlink:href="#mede54884b3" x="136.260475" y="372.3" style="stroke: #000000; stroke-width: 0.8"/>
      </g>
     </g>
     <g id="text_1">
      <!-- -40 -->
      <g transform="translate(128.386256 387.3) scale(0.1 -0.1)">
       <defs>
        <path id="NanumGothic-e" d="M 1946 2419 
Q 2016 2419 2025 2409 
Q 2035 2400 2035 2330 
L 2035 2048 
Q 2035 1978 2025 1968 
Q 2016 1958 1946 1958 
L 448 1958 
Q 378 1958 368 1968 
Q 358 1978 358 2048 
L 358 2330 
Q 358 2400 368 2409 
Q 378 2419 448 2419 
L 1946 2419 
z
" transform="scale(0.015625)"/>
        <path id="NanumGothic-15" d="M 2509 1216 
L 2509 4070 
Q 2035 3354 1568 2643 
Q 1101 1933 621 1216 
L 2509 1216 
z
M 2944 -211 
Q 2944 -301 2854 -301 
L 2598 -301 
Q 2509 -301 2509 -211 
L 2509 826 
L 397 826 
Q 262 826 240 848 
Q 218 870 218 1005 
L 218 1203 
Q 218 1261 224 1280 
Q 230 1299 262 1350 
L 2304 4397 
Q 2342 4454 2358 4464 
Q 2374 4474 2445 4474 
L 2765 4474 
Q 2899 4474 2921 4451 
Q 2944 4429 2944 4294 
L 2944 1216 
L 3578 1216 
Q 3667 1216 3667 1126 
L 3667 915 
Q 3667 826 3578 826 
L 2944 826 
L 2944 -211 
z
" transform="scale(0.015625)"/>
        <path id="NanumGothic-11" d="M 3066 2093 
Q 3066 4102 1965 4102 
Q 864 4102 864 2093 
Q 864 77 1965 77 
Q 3066 77 3066 2093 
z
M 3526 2093 
Q 3526 -326 1965 -326 
Q 390 -326 390 2093 
Q 390 3098 698 3725 
Q 1088 4512 1965 4512 
Q 2829 4512 3226 3725 
Q 3373 3411 3449 3008 
Q 3526 2605 3526 2093 
z
" transform="scale(0.015625)"/>
       </defs>
       <use xlink:href="#NanumGothic-e"/>
       <use xlink:href="#NanumGothic-15" transform="translate(36.296875 0)"/>
       <use xlink:href="#NanumGothic-11" transform="translate(96.890625 0)"/>
      </g>
     </g>
    </g>
    <g id="xtick_2">
     <g id="line2d_2">
      <g>
       <use xlink:href="#mede54884b3" x="244.419153" y="372.3" style="stroke: #000000; stroke-width: 0.8"/>
      </g>
     </g>
     <g id="text_2">
      <!-- -20 -->
      <g transform="translate(236.544934 387.3) scale(0.1 -0.1)">
       <defs>
        <path id="NanumGothic-13" d="M 576 -301 
Q 506 -301 470 -297 
Q 435 -294 419 -278 
Q 403 -262 400 -227 
Q 397 -192 397 -122 
L 403 19 
Q 403 102 454 154 
L 1510 1318 
Q 2688 2592 2688 3251 
Q 2688 3635 2432 3891 
Q 2182 4141 1811 4141 
Q 1293 4141 730 3853 
Q 640 3808 627 3891 
L 589 4102 
Q 570 4211 653 4237 
Q 979 4384 1241 4454 
Q 1504 4525 1779 4525 
Q 2394 4525 2758 4218 
Q 3168 3885 3168 3270 
Q 3168 3034 3053 2752 
Q 2938 2470 2733 2163 
Q 2605 1984 2371 1696 
Q 2138 1408 1837 1082 
Q 1613 838 1392 588 
Q 1171 339 947 96 
L 3187 96 
Q 3277 96 3277 6 
L 3277 -211 
Q 3277 -301 3187 -301 
L 576 -301 
z
" transform="scale(0.015625)"/>
       </defs>
       <use xlink:href="#NanumGothic-e"/>
       <use xlink:href="#NanumGothic-13" transform="translate(36.296875 0)"/>
       <use xlink:href="#NanumGothic-11" transform="translate(96.890625 0)"/>
      </g>
     </g>
    </g>
    <g id="xtick_3">
     <g id="line2d_3">
      <g>
       <use xlink:href="#mede54884b3" x="352.577831" y="372.3" style="stroke: #000000; stroke-width: 0.8"/>
      </g>
     </g>
     <g id="text_3">
      <!-- 0 -->
      <g transform="translate(349.548143 387.3) scale(0.1 -0.1)">
       <use xlink:href="#NanumGothic-11"/>
      </g>
     </g>
    </g>
    <g id="xtick_4">
     <g id="line2d_4">
      <g>
       <use xlink:href="#mede54884b3" x="460.736508" y="372.3" style="stroke: #000000; stroke-width: 0.8"/>
      </g>
     </g>
     <g id="text_4">
      <!-- 20 -->
      <g transform="translate(454.677133 387.3) scale(0.1 -0.1)">
       <use xlink:href="#NanumGothic-13"/>
       <use xlink:href="#NanumGothic-11" transform="translate(60.59375 0)"/>
      </g>
     </g>
    </g>
    <g id="xtick_5">
     <g id="line2d_5">
      <g>
       <use xlink:href="#mede54884b3" x="568.895186" y="372.3" style="stroke: #000000; stroke-width: 0.8"/>
      </g>
     </g>
     <g id="text_5">
      <!-- 40 -->
      <g transform="translate(562.835811 387.3) scale(0.1 -0.1)">
       <use xlink:href="#NanumGothic-15"/>
       <use xlink:href="#NanumGothic-11" transform="translate(60.59375 0)"/>
      </g>
     </g>
    </g>
    <g id="xtick_6">
     <g id="line2d_6">
      <g>
       <use xlink:href="#mede54884b3" x="677.053864" y="372.3" style="stroke: #000000; stroke-width: 0.8"/>
      </g>
     </g>
     <g id="text_6">
      <!-- 60 -->
      <g transform="translate(670.994489 387.3) scale(0.1 -0.1)">
       <defs>
        <path id="NanumGothic-17" d="M 3078 1203 
Q 3078 1722 2810 2022 
Q 2541 2330 2042 2330 
Q 1786 2330 1581 2250 
Q 1376 2170 1232 2029 
Q 1088 1888 1008 1689 
Q 928 1491 928 1254 
Q 928 768 1197 435 
Q 1491 45 1984 45 
Q 2490 45 2797 384 
Q 3078 704 3078 1203 
z
M 3245 4013 
Q 3098 4064 2909 4096 
Q 2720 4128 2534 4128 
Q 1664 4128 1248 3501 
Q 896 2976 883 2061 
Q 1024 2317 1293 2496 
Q 1626 2733 2042 2733 
Q 2624 2733 3021 2426 
Q 3526 2035 3526 1235 
Q 3526 557 3110 109 
Q 2688 -346 1971 -346 
Q 435 -346 435 1920 
Q 435 3104 909 3770 
Q 1466 4525 2586 4525 
Q 2752 4525 2934 4499 
Q 3117 4474 3270 4429 
Q 3366 4410 3354 4314 
L 3341 4077 
Q 3341 4032 3309 4016 
Q 3277 4000 3245 4013 
z
" transform="scale(0.015625)"/>
       </defs>
       <use xlink:href="#NanumGothic-17"/>
       <use xlink:href="#NanumGothic-11" transform="translate(60.59375 0)"/>
      </g>
     </g>
    </g>
    <g id="text_7">
     <!-- 기온(°C) -->
     <g transform="translate(360.997969 401.3) scale(0.1 -0.1)">
      <defs>
       <path id="NanumGothic-4dd" d="M 5152 -806 
Q 5152 -896 5062 -896 
L 4800 -896 
Q 4710 -896 4710 -806 
L 4710 4915 
Q 4710 5005 4800 5005 
L 5062 5005 
Q 5152 5005 5152 4915 
L 5152 -806 
z
M 3437 4064 
Q 3405 3514 3219 2982 
Q 3034 2451 2704 1968 
Q 2374 1485 1910 1072 
Q 1446 659 858 346 
Q 774 301 736 365 
L 595 589 
Q 550 666 621 698 
Q 1165 979 1584 1340 
Q 2003 1702 2300 2124 
Q 2598 2547 2771 3014 
Q 2944 3482 2989 3974 
Q 3002 4070 2963 4105 
Q 2925 4141 2835 4141 
L 800 4141 
Q 723 4141 723 4224 
L 723 4448 
Q 723 4525 800 4525 
L 2957 4525 
Q 3258 4525 3354 4413 
Q 3450 4301 3437 4064 
z
" transform="scale(0.015625)"/>
       <path id="NanumGothic-9e1" d="M 5728 1837 
Q 5760 1837 5792 1814 
Q 5824 1792 5824 1754 
L 5824 1536 
Q 5824 1504 5792 1478 
Q 5760 1453 5728 1453 
L 288 1453 
Q 250 1453 221 1478 
Q 192 1504 192 1536 
L 192 1754 
Q 192 1792 221 1814 
Q 250 1837 288 1837 
L 2778 1837 
L 2778 2630 
Q 2477 2650 2166 2720 
Q 1856 2790 1600 2928 
Q 1344 3066 1181 3274 
Q 1018 3482 1018 3776 
Q 1018 4122 1213 4342 
Q 1408 4563 1705 4691 
Q 2003 4819 2352 4867 
Q 2701 4915 3008 4915 
Q 3322 4915 3674 4857 
Q 4026 4800 4320 4669 
Q 4614 4538 4806 4320 
Q 4998 4102 4998 3776 
Q 4998 3475 4835 3267 
Q 4672 3059 4413 2921 
Q 4154 2784 3837 2717 
Q 3520 2650 3219 2630 
L 3219 1837 
L 5728 1837 
z
M 3008 4506 
Q 2797 4506 2528 4480 
Q 2259 4454 2025 4374 
Q 1792 4294 1629 4150 
Q 1466 4006 1466 3770 
Q 1466 3533 1629 3389 
Q 1792 3245 2025 3165 
Q 2259 3085 2528 3059 
Q 2797 3034 3008 3034 
Q 3219 3034 3484 3059 
Q 3750 3085 3987 3165 
Q 4224 3245 4387 3389 
Q 4550 3533 4550 3770 
Q 4550 4006 4387 4150 
Q 4224 4294 3990 4374 
Q 3757 4454 3488 4480 
Q 3219 4506 3008 4506 
z
M 5133 -704 
Q 5133 -742 5101 -761 
Q 5069 -781 5037 -781 
L 1562 -781 
Q 1261 -781 1168 -656 
Q 1075 -531 1075 -269 
L 1075 851 
Q 1075 941 1165 941 
L 1427 941 
Q 1517 941 1517 851 
L 1517 -262 
Q 1517 -352 1545 -374 
Q 1574 -397 1664 -397 
L 5037 -397 
Q 5069 -397 5101 -419 
Q 5133 -442 5133 -474 
L 5133 -704 
z
" transform="scale(0.015625)"/>
       <path id="NanumGothic-9" d="M 1984 -1133 
Q 1939 -1133 1929 -1129 
Q 1920 -1126 1894 -1094 
Q 1312 -365 1030 384 
Q 749 1133 749 1933 
Q 749 2726 1030 3475 
Q 1312 4224 1894 4960 
Q 1920 4992 1929 4995 
Q 1939 4998 1971 4998 
L 2150 4998 
Q 2189 4998 2189 4992 
Q 2189 4986 2170 4954 
Q 1165 3379 1165 1933 
Q 1165 1197 1421 448 
Q 1677 -301 2176 -1088 
Q 2208 -1133 2144 -1133 
L 1984 -1133 
z
" transform="scale(0.015625)"/>
       <path id="NanumGothic-8a" d="M 1920 3930 
Q 1920 4134 1776 4281 
Q 1632 4429 1427 4429 
Q 1222 4429 1078 4281 
Q 934 4134 934 3930 
Q 934 3725 1078 3577 
Q 1222 3430 1427 3430 
Q 1632 3430 1776 3577 
Q 1920 3725 1920 3930 
z
M 2112 3930 
Q 2112 3789 2057 3664 
Q 2003 3539 1910 3446 
Q 1818 3354 1693 3299 
Q 1568 3245 1427 3245 
Q 1286 3245 1161 3299 
Q 1037 3354 944 3446 
Q 851 3539 796 3664 
Q 742 3789 742 3930 
Q 742 4070 796 4195 
Q 851 4320 944 4413 
Q 1037 4506 1161 4560 
Q 1286 4614 1427 4614 
Q 1568 4614 1693 4560 
Q 1818 4506 1910 4413 
Q 2003 4320 2057 4195 
Q 2112 4070 2112 3930 
z
" transform="scale(0.015625)"/>
       <path id="NanumGothic-24" d="M 3834 186 
Q 3872 198 3904 188 
Q 3936 179 3936 141 
L 3949 -109 
Q 3955 -192 3859 -224 
Q 3648 -294 3424 -326 
Q 3200 -358 2861 -358 
Q 1747 -358 1088 320 
Q 762 653 605 1094 
Q 448 1536 448 2093 
Q 448 3187 1107 3866 
Q 1779 4544 2861 4544 
Q 3014 4544 3139 4537 
Q 3264 4531 3382 4518 
Q 3501 4506 3616 4486 
Q 3731 4467 3859 4435 
Q 3955 4416 3949 4314 
L 3936 4058 
Q 3923 3968 3840 4000 
Q 3590 4083 3366 4112 
Q 3142 4141 2861 4141 
Q 1958 4141 1421 3565 
Q 922 3008 922 2093 
Q 922 1632 1043 1261 
Q 1165 890 1414 614 
Q 1933 38 2861 45 
Q 3130 51 3395 83 
Q 3661 115 3834 186 
z
" transform="scale(0.015625)"/>
       <path id="NanumGothic-a" d="M 301 -1133 
Q 243 -1133 275 -1088 
Q 774 -301 1027 448 
Q 1280 1197 1280 1933 
Q 1280 2662 1030 3414 
Q 781 4166 282 4954 
Q 262 4986 262 4992 
Q 262 4998 294 4998 
L 474 4998 
Q 506 4998 515 4995 
Q 525 4992 557 4960 
Q 1139 4224 1417 3475 
Q 1696 2726 1696 1933 
Q 1696 1133 1417 384 
Q 1139 -365 557 -1094 
Q 525 -1126 515 -1129 
Q 506 -1133 461 -1133 
L 301 -1133 
z
" transform="scale(0.015625)"/>
      </defs>
      <use xlink:href="#NanumGothic-4dd"/>
      <use xlink:href="#NanumGothic-9e1" transform="translate(94 0)"/>
      <use xlink:href="#NanumGothic-9" transform="translate(188 0)"/>
      <use xlink:href="#NanumGothic-8a" transform="translate(224.296875 0)"/>
      <use xlink:href="#NanumGothic-24" transform="translate(268.890625 0)"/>
      <use xlink:href="#NanumGothic-a" transform="translate(336.09375 0)"/>
     </g>
    </g>
   </g>
   <g id="matplotlib.axis_2">
    <g id="ytick_1">
     <g id="line2d_7">
      <defs>
       <path id="m3b49d70286" d="M 0 0 
L -3.5 0 
" style="stroke: #000000; stroke-width: 0.8"/>
      </defs>
      <g>
       <use xlink:href="#m3b49d70286" x="52.4375" y="372.3" style="stroke: #000000; stroke-width: 0.8"/>
      </g>
     </g>
     <g id="text_8">
      <!-- 0 -->
      <g transform="translate(39.378125 376.3) scale(0.1 -0.1)">
       <use xlink:href="#NanumGothic-11"/>
      </g>
     </g>
    </g>
    <g id="ytick_2">
     <g id="line2d_8">
      <g>
       <use xlink:href="#m3b49d70286" x="52.4375" y="298.983449" style="stroke: #000000; stroke-width: 0.8"/>
      </g>
     </g>
     <g id="text_9">
      <!-- 500 -->
      <g transform="translate(27.259375 302.983449) scale(0.1 -0.1)">
       <defs>
        <path id="NanumGothic-16" d="M 736 -205 
Q 646 -173 646 -90 
L 646 179 
Q 646 288 736 243 
Q 966 134 1187 89 
Q 1408 45 1670 45 
Q 2234 45 2586 320 
Q 2970 614 2970 1165 
Q 2970 2246 1734 2246 
Q 1491 2246 1296 2220 
Q 1101 2195 864 2131 
Q 794 2112 749 2147 
Q 704 2182 704 2253 
L 742 4294 
Q 742 4429 764 4451 
Q 787 4474 922 4474 
L 3110 4474 
Q 3200 4474 3200 4384 
L 3200 4173 
Q 3200 4083 3110 4083 
L 1178 4083 
Q 1171 3680 1161 3296 
Q 1152 2912 1146 2509 
Q 1459 2630 1907 2630 
Q 2579 2630 2995 2266 
Q 3411 1888 3411 1254 
Q 3411 480 2931 58 
Q 2470 -346 1670 -346 
Q 1382 -346 1171 -314 
Q 960 -282 736 -205 
z
" transform="scale(0.015625)"/>
       </defs>
       <use xlink:href="#NanumGothic-16"/>
       <use xlink:href="#NanumGothic-11" transform="translate(60.59375 0)"/>
       <use xlink:href="#NanumGothic-11" transform="translate(121.1875 0)"/>
      </g>
     </g>
    </g>
    <g id="ytick_3">
     <g id="line2d_9">
      <g>
       <use xlink:href="#m3b49d70286" x="52.4375" y="225.666897" style="stroke: #000000; stroke-width: 0.8"/>
      </g>
     </g>
     <g id="text_10">
      <!-- 1000 -->
      <g transform="translate(21.2 229.666897) scale(0.1 -0.1)">
       <defs>
        <path id="NanumGothic-12" d="M 2362 -211 
Q 2362 -301 2272 -301 
L 2010 -301 
Q 1920 -301 1920 -211 
L 1920 3949 
Q 1722 3782 1549 3635 
Q 1376 3488 1184 3322 
Q 1114 3264 1056 3334 
L 928 3488 
Q 909 3520 909 3555 
Q 909 3590 941 3616 
L 1933 4448 
Q 1958 4474 2010 4474 
L 2182 4474 
Q 2317 4474 2339 4451 
Q 2362 4429 2362 4294 
L 2362 -211 
z
" transform="scale(0.015625)"/>
       </defs>
       <use xlink:href="#NanumGothic-12"/>
       <use xlink:href="#NanumGothic-11" transform="translate(60.59375 0)"/>
       <use xlink:href="#NanumGothic-11" transform="translate(121.1875 0)"/>
       <use xlink:href="#NanumGothic-11" transform="translate(181.78125 0)"/>
      </g>
     </g>
    </g>
    <g id="ytick_4">
     <g id="line2d_10">
      <g>
       <use xlink:href="#m3b49d70286" x="52.4375" y="152.350346" style="stroke: #000000; stroke-width: 0.8"/>
      </g>
     </g>
     <g id="text_11">
      <!-- 1500 -->
      <g transform="translate(21.2 156.350346) scale(0.1 -0.1)">
       <use xlink:href="#NanumGothic-12"/>
       <use xlink:href="#NanumGothic-16" transform="translate(60.59375 0)"/>
       <use xlink:href="#NanumGothic-11" transform="translate(121.1875 0)"/>
       <use xlink:href="#NanumGothic-11" transform="translate(181.78125 0)"/>
      </g>
     </g>
    </g>
    <g id="ytick_5">
     <g id="line2d_11">
      <g>
       <use xlink:href="#m3b49d70286" x="52.4375" y="79.033795" style="stroke: #000000; stroke-width: 0.8"/>
      </g>
     </g>
     <g id="text_12">
      <!-- 2000 -->
      <g transform="translate(21.2 83.033795) scale(0.1 -0.1)">
       <use xlink:href="#NanumGothic-13"/>
       <use xlink:href="#NanumGothic-11" transform="translate(60.59375 0)"/>
       <use xlink:href="#NanumGothic-11" transform="translate(121.1875 0)"/>
       <use xlink:href="#NanumGothic-11" transform="translate(181.78125 0)"/>
      </g>
     </g>
    </g>
    <g id="text_13">
     <!-- Count -->
     <g transform="translate(15.2 211.814063) rotate(-90) scale(0.1 -0.1)">
      <defs>
       <path id="NanumGothic-50" d="M 3130 1453 
Q 3130 1754 3050 2016 
Q 2970 2278 2829 2483 
Q 2496 2893 1965 2893 
Q 1696 2893 1481 2787 
Q 1267 2682 1101 2483 
Q 954 2278 874 2016 
Q 794 1754 794 1453 
Q 794 1146 874 883 
Q 954 621 1101 422 
Q 1440 6 1965 6 
Q 2234 6 2448 115 
Q 2662 224 2829 422 
Q 2970 621 3050 883 
Q 3130 1146 3130 1453 
z
M 3603 1453 
Q 3603 1075 3494 752 
Q 3386 429 3206 186 
Q 2982 -83 2672 -230 
Q 2362 -378 1965 -378 
Q 1568 -378 1254 -230 
Q 941 -83 717 186 
Q 538 429 432 752 
Q 326 1075 326 1453 
Q 326 2227 717 2720 
Q 1165 3277 1965 3277 
Q 2368 3277 2675 3139 
Q 2982 3002 3206 2720 
Q 3603 2214 3603 1453 
z
" transform="scale(0.015625)"/>
       <path id="NanumGothic-56" d="M 3347 -186 
Q 3347 -275 3258 -275 
L 3027 -275 
Q 2938 -275 2938 -186 
L 2938 346 
Q 2771 -38 2492 -208 
Q 2214 -378 1792 -378 
Q 595 -378 595 960 
L 595 3098 
Q 595 3187 685 3187 
L 941 3187 
Q 1030 3187 1030 3098 
L 1030 1075 
Q 1030 -13 1862 -13 
Q 2106 -13 2301 92 
Q 2496 198 2630 380 
Q 2765 563 2835 806 
Q 2906 1050 2899 1318 
L 2899 3098 
Q 2899 3187 2989 3187 
L 3245 3187 
Q 3334 3187 3334 3098 
L 3334 525 
Q 3334 314 3337 147 
Q 3341 -19 3347 -186 
z
" transform="scale(0.015625)"/>
       <path id="NanumGothic-4f" d="M 3334 -186 
Q 3334 -275 3245 -275 
L 2989 -275 
Q 2899 -275 2899 -186 
L 2899 1830 
Q 2899 2419 2688 2665 
Q 2477 2912 2093 2912 
Q 1574 2912 1302 2624 
Q 1030 2336 1030 1818 
L 1030 -186 
Q 1030 -275 941 -275 
L 685 -275 
Q 595 -275 595 -186 
L 595 2374 
Q 595 2650 592 2803 
Q 589 2957 576 3098 
Q 570 3142 598 3164 
Q 627 3187 666 3187 
L 896 3187 
Q 986 3187 986 3098 
L 986 2746 
Q 1165 3021 1417 3149 
Q 1670 3277 2112 3277 
Q 2720 3277 3027 2925 
Q 3334 2573 3334 1933 
L 3334 -186 
z
" transform="scale(0.015625)"/>
       <path id="NanumGothic-55" d="M 2208 -282 
Q 1939 -378 1677 -378 
Q 1158 -378 992 -38 
Q 883 192 883 774 
L 883 2816 
L 282 2816 
Q 192 2816 192 2906 
L 192 3098 
Q 192 3187 282 3187 
L 883 3187 
L 883 4051 
Q 883 4147 966 4147 
L 1235 4147 
Q 1318 4147 1318 4051 
L 1318 3187 
L 2029 3187 
Q 2118 3187 2118 3098 
L 2118 2906 
Q 2118 2816 2029 2816 
L 1318 2816 
L 1318 557 
Q 1318 -13 1779 -13 
Q 1958 -13 2182 64 
Q 2214 77 2243 64 
Q 2272 51 2272 13 
L 2285 -154 
Q 2298 -243 2208 -282 
z
" transform="scale(0.015625)"/>
      </defs>
      <use xlink:href="#NanumGothic-24"/>
      <use xlink:href="#NanumGothic-50" transform="translate(67.203125 0)"/>
      <use xlink:href="#NanumGothic-56" transform="translate(127.796875 0)"/>
      <use xlink:href="#NanumGothic-4f" transform="translate(188.390625 0)"/>
      <use xlink:href="#NanumGothic-55" transform="translate(248.984375 0)"/>
     </g>
    </g>
   </g>
   <g id="line2d_12">
    <path d="M 276.866756 371.422036 
L 281.138752 370.664787 
L 285.410748 369.749254 
L 289.682744 368.585271 
L 292.530742 367.558665 
L 295.378739 366.21055 
L 296.802738 365.363855 
L 298.226736 364.364848 
L 299.650735 363.183435 
L 301.074734 361.79321 
L 302.498732 360.176679 
L 303.922731 358.329251 
L 305.34673 356.260652 
L 308.194727 351.557663 
L 311.042724 346.310115 
L 313.890722 340.701746 
L 316.738719 334.703512 
L 319.586716 328.029707 
L 321.010715 324.302641 
L 322.434714 320.238489 
L 323.858712 315.786353 
L 325.282711 310.905288 
L 326.70671 305.567197 
L 329.554707 293.490598 
L 332.402704 279.70727 
L 336.6747 257.027441 
L 340.946696 234.506985 
L 343.794694 221.05222 
L 346.642691 209.377746 
L 349.490688 199.19901 
L 358.03468 170.292726 
L 362.306676 155.650207 
L 365.154674 147.098922 
L 366.578672 143.358263 
L 368.002671 139.958299 
L 370.850668 133.957058 
L 373.698666 128.647302 
L 376.546663 123.851277 
L 379.394661 119.698087 
L 380.818659 117.943704 
L 382.242658 116.456411 
L 383.666657 115.280308 
L 385.090655 114.46097 
L 386.514654 114.039859 
L 387.938653 114.04611 
L 389.362651 114.487233 
L 390.78665 115.340833 
L 392.210649 116.54977 
L 395.058646 119.646637 
L 397.906643 122.870668 
L 399.330642 124.296982 
L 402.178639 126.691749 
L 406.450635 129.980422 
L 410.722631 133.567607 
L 412.14663 134.574358 
L 413.570629 135.354644 
L 414.994627 135.87261 
L 416.418626 136.132282 
L 417.842625 136.165039 
L 419.266623 136.008746 
L 420.690622 135.688681 
L 422.114621 135.208577 
L 423.538619 134.554711 
L 424.962618 133.70961 
L 426.386617 132.667931 
L 429.234614 130.086256 
L 434.930609 124.148695 
L 437.778606 120.854419 
L 439.202605 118.891035 
L 440.626603 116.590467 
L 442.050602 113.891114 
L 443.474601 110.784104 
L 446.322598 103.618028 
L 450.594594 92.499974 
L 453.442591 86.124397 
L 456.290589 80.570969 
L 464.834581 64.768086 
L 467.682578 60.104182 
L 469.106577 58.045502 
L 470.530575 56.218274 
L 471.954574 54.670686 
L 473.378573 53.456527 
L 474.802571 52.624413 
L 476.22657 52.204923 
L 477.650569 52.201855 
L 479.074567 52.592548 
L 480.498566 53.338717 
L 481.922565 54.4048 
L 483.346563 55.777489 
L 484.770562 57.479279 
L 486.194561 59.570978 
L 487.61856 62.142181 
L 489.042558 65.292977 
L 490.466557 69.11276 
L 491.890556 73.662265 
L 493.314554 78.963175 
L 494.738553 84.996937 
L 496.162552 91.711931 
L 499.010549 106.893286 
L 501.858546 123.947837 
L 504.706544 142.53498 
L 507.554541 162.46579 
L 514.674534 213.990391 
L 517.522532 232.203059 
L 520.370529 247.846276 
L 523.218526 261.277256 
L 526.066524 273.320393 
L 530.33852 290.13368 
L 537.458513 316.775767 
L 543.154508 337.550932 
L 546.002505 346.973332 
L 547.426504 351.205417 
L 548.850502 355.044241 
L 550.274501 358.454241 
L 551.6985 361.417613 
L 553.122498 363.933889 
L 554.546497 366.018466 
L 555.970496 367.700447 
L 557.394494 369.019881 
L 558.818493 370.024444 
L 560.242492 370.765683 
L 560.242492 370.765683 
" clip-path="url(#p35de490345)" style="fill: none; stroke: #1f77b4; stroke-width: 1.5; stroke-linecap: square"/>
   </g>
   <g id="line2d_13">
    <path d="M 248.7455 372.3 
L 248.7455 22.8 
" clip-path="url(#p35de490345)" style="fill: none; stroke-dasharray: 5.55,2.4; stroke-dashoffset: 0; stroke: #1f77b4; stroke-width: 1.5"/>
   </g>
   <g id="line2d_14">
    <path d="M 616.485004 372.3 
L 616.485004 22.8 
" clip-path="url(#p35de490345)" style="fill: none; stroke-dasharray: 5.55,2.4; stroke-dashoffset: 0; stroke: #1f77b4; stroke-width: 1.5"/>
   </g>
   <g id="line2d_15">
    <path d="M 82.181136 372.3 
L 82.181136 22.8 
" clip-path="url(#p35de490345)" style="fill: none; stroke-dasharray: 1.5,2.475; stroke-dashoffset: 0; stroke: #1f77b4; stroke-width: 1.5"/>
   </g>
   <g id="line2d_16">
    <path d="M 677.053864 372.3 
L 677.053864 22.8 
" clip-path="url(#p35de490345)" style="fill: none; stroke-dasharray: 1.5,2.475; stroke-dashoffset: 0; stroke: #1f77b4; stroke-width: 1.5"/>
   </g>
   <g id="patch_70">
    <path d="M 52.4375 372.3 
L 52.4375 22.8 
" style="fill: none; stroke: #000000; stroke-width: 0.8; stroke-linejoin: miter; stroke-linecap: square"/>
   </g>
   <g id="patch_71">
    <path d="M 706.7975 372.3 
L 706.7975 22.8 
" style="fill: none; stroke: #000000; stroke-width: 0.8; stroke-linejoin: miter; stroke-linecap: square"/>
   </g>
   <g id="patch_72">
    <path d="M 52.4375 372.3 
L 706.7975 372.3 
" style="fill: none; stroke: #000000; stroke-width: 0.8; stroke-linejoin: miter; stroke-linecap: square"/>
   </g>
   <g id="patch_73">
    <path d="M 52.4375 22.8 
L 706.7975 22.8 
" style="fill: none; stroke: #000000; stroke-width: 0.8; stroke-linejoin: miter; stroke-linecap: square"/>
   </g>
   <g id="text_14">
    <!-- 기온(°C) - Distribution -->
    <g transform="translate(319.397188 16.8) scale(0.12 -0.12)">
     <defs>
      <path id="NanumGothic-1" transform="scale(0.015625)"/>
      <path id="NanumGothic-25" d="M 3706 2131 
Q 3706 3149 3142 3635 
Q 2643 4064 1773 4064 
L 1082 4064 
L 1082 128 
L 1472 128 
Q 3706 128 3706 2131 
z
M 4173 2106 
Q 4173 1510 3968 1043 
Q 3763 576 3398 269 
Q 3053 6 2560 -134 
Q 2067 -275 1446 -275 
L 787 -275 
Q 653 -275 630 -252 
Q 608 -230 608 -96 
L 608 4282 
Q 608 4416 630 4438 
Q 653 4461 787 4461 
L 1792 4461 
Q 3008 4461 3622 3802 
Q 4173 3194 4173 2106 
z
" transform="scale(0.015625)"/>
      <path id="NanumGothic-4a" d="M 1050 -186 
Q 1050 -275 960 -275 
L 678 -275 
Q 589 -275 589 -186 
L 589 3098 
Q 589 3187 678 3187 
L 960 3187 
Q 1050 3187 1050 3098 
L 1050 -186 
z
M 506 4397 
Q 506 4525 595 4617 
Q 685 4710 813 4710 
Q 941 4710 1033 4617 
Q 1126 4525 1126 4397 
Q 1126 4269 1033 4179 
Q 941 4090 813 4090 
Q 685 4090 595 4179 
Q 506 4269 506 4397 
z
" transform="scale(0.015625)"/>
      <path id="NanumGothic-54" d="M 422 147 
Q 813 -13 1229 -13 
Q 1574 -13 1798 156 
Q 2022 326 2022 614 
Q 2022 781 1897 937 
Q 1773 1094 1594 1197 
Q 1395 1306 1187 1405 
Q 979 1504 787 1613 
Q 557 1741 448 1929 
Q 339 2118 339 2323 
Q 339 2560 428 2739 
Q 518 2918 672 3040 
Q 826 3162 1030 3219 
Q 1235 3277 1466 3277 
Q 1709 3277 1888 3251 
Q 2067 3226 2246 3174 
Q 2285 3162 2313 3136 
Q 2342 3110 2336 3066 
L 2317 2874 
Q 2310 2822 2278 2809 
Q 2246 2797 2214 2810 
Q 2054 2867 1894 2889 
Q 1734 2912 1510 2912 
Q 768 2912 768 2323 
Q 768 2195 867 2080 
Q 966 1965 1203 1850 
Q 1408 1747 1606 1654 
Q 1805 1562 2035 1434 
Q 2234 1325 2365 1101 
Q 2496 877 2496 614 
Q 2496 358 2393 172 
Q 2291 -13 2118 -134 
Q 1946 -256 1722 -317 
Q 1498 -378 1261 -378 
Q 1120 -378 1008 -371 
Q 896 -365 797 -352 
Q 698 -339 595 -320 
Q 493 -301 378 -269 
Q 288 -237 294 -154 
L 320 83 
Q 333 186 422 147 
z
" transform="scale(0.015625)"/>
      <path id="NanumGothic-53" d="M 2221 2797 
Q 2106 2835 1914 2835 
Q 1440 2835 1210 2368 
Q 1030 2003 1030 1434 
L 1030 -186 
Q 1030 -275 941 -275 
L 691 -275 
Q 602 -275 602 -186 
L 602 2413 
Q 602 2643 598 2787 
Q 595 2931 589 3098 
Q 589 3187 678 3187 
L 915 3187 
Q 1005 3187 1005 3098 
L 1005 2470 
Q 1318 3277 1926 3277 
Q 2074 3277 2221 3238 
Q 2259 3226 2288 3197 
Q 2317 3168 2317 3117 
L 2317 2848 
Q 2317 2810 2285 2797 
Q 2253 2784 2221 2797 
z
" transform="scale(0.015625)"/>
      <path id="NanumGothic-43" d="M 3066 1478 
Q 3072 1747 3017 2003 
Q 2963 2259 2841 2464 
Q 2720 2669 2518 2793 
Q 2317 2918 2022 2918 
Q 1760 2918 1565 2806 
Q 1370 2694 1242 2496 
Q 1114 2298 1050 2035 
Q 986 1773 986 1478 
Q 986 1190 1066 924 
Q 1146 659 1283 460 
Q 1421 262 1609 144 
Q 1798 26 2022 26 
Q 2317 26 2518 150 
Q 2720 275 2841 480 
Q 2963 685 3017 947 
Q 3072 1210 3066 1478 
z
M 557 4749 
Q 557 4838 646 4838 
L 896 4838 
Q 986 4838 986 4749 
L 986 2707 
Q 1146 2970 1440 3126 
Q 1734 3283 2099 3283 
Q 3526 3283 3526 1478 
Q 3533 1120 3453 790 
Q 3373 461 3193 211 
Q 3014 -38 2742 -188 
Q 2470 -339 2099 -339 
Q 1331 -339 986 314 
L 986 -186 
Q 986 -275 896 -275 
L 646 -275 
Q 557 -275 557 -186 
L 557 4749 
z
" transform="scale(0.015625)"/>
     </defs>
     <use xlink:href="#NanumGothic-4dd"/>
     <use xlink:href="#NanumGothic-9e1" transform="translate(94 0)"/>
     <use xlink:href="#NanumGothic-9" transform="translate(188 0)"/>
     <use xlink:href="#NanumGothic-8a" transform="translate(224.296875 0)"/>
     <use xlink:href="#NanumGothic-24" transform="translate(268.890625 0)"/>
     <use xlink:href="#NanumGothic-a" transform="translate(336.09375 0)"/>
     <use xlink:href="#NanumGothic-1" transform="translate(372.390625 0)"/>
     <use xlink:href="#NanumGothic-e" transform="translate(400.390625 0)"/>
     <use xlink:href="#NanumGothic-1" transform="translate(436.6875 0)"/>
     <use xlink:href="#NanumGothic-25" transform="translate(464.6875 0)"/>
     <use xlink:href="#NanumGothic-4a" transform="translate(537.390625 0)"/>
     <use xlink:href="#NanumGothic-54" transform="translate(561.59375 0)"/>
     <use xlink:href="#NanumGothic-55" transform="translate(604 0)"/>
     <use xlink:href="#NanumGothic-53" transform="translate(640.296875 0)"/>
     <use xlink:href="#NanumGothic-4a" transform="translate(676.59375 0)"/>
     <use xlink:href="#NanumGothic-43" transform="translate(700.796875 0)"/>
     <use xlink:href="#NanumGothic-56" transform="translate(761.390625 0)"/>
     <use xlink:href="#NanumGothic-55" transform="translate(821.984375 0)"/>
     <use xlink:href="#NanumGothic-4a" transform="translate(858.28125 0)"/>
     <use xlink:href="#NanumGothic-50" transform="translate(882.484375 0)"/>
     <use xlink:href="#NanumGothic-4f" transform="translate(943.078125 0)"/>
    </g>
   </g>
   <g id="legend_1">
    <g id="patch_74">
     <path d="M 329.813594 90.8 
L 429.421406 90.8 
Q 431.421406 90.8 431.421406 88.8 
L 431.421406 29.8 
Q 431.421406 27.8 429.421406 27.8 
L 329.813594 27.8 
Q 327.813594 27.8 327.813594 29.8 
L 327.813594 88.8 
Q 327.813594 90.8 329.813594 90.8 
z
" style="fill: #ffffff; opacity: 0.8; stroke: #cccccc; stroke-linejoin: miter"/>
    </g>
    <g id="line2d_17">
     <path d="M 331.813594 36.3 
L 341.813594 36.3 
L 351.813594 36.3 
" style="fill: none; stroke-dasharray: 5.55,2.4; stroke-dashoffset: 0; stroke: #1f77b4; stroke-width: 1.5"/>
    </g>
    <g id="text_15">
     <!-- IQR Lower -->
     <g transform="translate(359.813594 39.8) scale(0.1 -0.1)">
      <defs>
       <path id="NanumGothic-2a" d="M 1069 -186 
Q 1069 -275 979 -275 
L 672 -275 
Q 582 -275 582 -186 
L 582 4371 
Q 582 4461 672 4461 
L 979 4461 
Q 1069 4461 1069 4371 
L 1069 -186 
z
" transform="scale(0.015625)"/>
       <path id="NanumGothic-32" d="M 4160 2093 
Q 4160 2925 3770 3494 
Q 3328 4141 2534 4141 
Q 1734 4141 1293 3494 
Q 902 2925 902 2093 
Q 902 1261 1293 691 
Q 1734 45 2534 45 
Q 3328 45 3770 691 
Q 4160 1261 4160 2093 
z
M 4294 -1069 
Q 4326 -1101 4316 -1129 
Q 4307 -1158 4269 -1158 
L 3904 -1158 
Q 3776 -1158 3686 -1069 
L 2931 -326 
Q 2848 -339 2752 -348 
Q 2656 -358 2534 -358 
Q 1517 -358 966 326 
Q 448 966 435 2093 
Q 429 3117 934 3802 
Q 1222 4154 1628 4349 
Q 2035 4544 2534 4544 
Q 3034 4544 3437 4349 
Q 3840 4154 4128 3802 
Q 4634 3117 4627 2093 
Q 4621 1670 4534 1305 
Q 4448 941 4301 653 
Q 4147 358 3913 137 
Q 3680 -83 3379 -198 
L 4294 -1069 
z
" transform="scale(0.015625)"/>
       <path id="NanumGothic-33" d="M 3002 3078 
Q 3002 3347 2941 3536 
Q 2880 3725 2736 3843 
Q 2592 3962 2361 4013 
Q 2131 4064 1786 4064 
L 1126 4064 
L 1126 2157 
L 1798 2157 
Q 2061 2157 2281 2221 
Q 2502 2285 2662 2406 
Q 2822 2528 2912 2697 
Q 3002 2867 3002 3078 
z
M 3763 -186 
Q 3776 -218 3763 -246 
Q 3750 -275 3712 -275 
L 3379 -275 
Q 3283 -275 3238 -186 
Q 2950 416 2758 797 
Q 2566 1178 2458 1402 
Q 2323 1664 2253 1805 
Q 2106 1773 1981 1766 
Q 1856 1760 1664 1754 
L 1126 1754 
L 1126 -186 
Q 1126 -275 1037 -275 
L 749 -275 
Q 659 -275 659 -186 
L 659 4269 
Q 659 4339 662 4377 
Q 666 4416 685 4435 
Q 704 4454 742 4457 
Q 781 4461 851 4461 
L 2061 4461 
Q 2426 4461 2691 4361 
Q 2957 4262 3133 4083 
Q 3309 3904 3395 3648 
Q 3482 3392 3482 3078 
Q 3482 2886 3414 2713 
Q 3347 2541 3232 2393 
Q 3117 2246 2966 2128 
Q 2816 2010 2656 1933 
L 3763 -186 
z
" transform="scale(0.015625)"/>
       <path id="NanumGothic-2d" d="M 2912 128 
Q 3002 128 3002 38 
L 3002 -186 
Q 3002 -275 2912 -275 
L 838 -275 
Q 749 -275 701 -272 
Q 653 -269 630 -246 
Q 608 -224 605 -173 
Q 602 -122 602 -32 
L 602 4371 
Q 602 4461 691 4461 
L 986 4461 
Q 1075 4461 1075 4371 
L 1075 128 
L 2912 128 
z
" transform="scale(0.015625)"/>
       <path id="NanumGothic-58" d="M 4218 -205 
Q 4198 -275 4115 -275 
L 3738 -275 
Q 3661 -275 3635 -205 
L 2726 2739 
Q 2490 1997 2253 1267 
Q 2016 538 1779 -198 
Q 1760 -275 1664 -275 
L 1312 -275 
Q 1267 -275 1238 -262 
Q 1210 -250 1197 -198 
L 128 3098 
Q 115 3130 134 3158 
Q 154 3187 192 3187 
L 486 3187 
Q 563 3187 602 3098 
L 1510 179 
Q 1747 915 1974 1622 
Q 2202 2330 2438 3066 
Q 2470 3187 2586 3187 
L 2886 3187 
Q 3008 3187 3040 3066 
L 3930 179 
Q 4173 934 4400 1638 
Q 4627 2342 4870 3098 
Q 4883 3136 4915 3161 
Q 4947 3187 4986 3187 
L 5242 3187 
Q 5280 3187 5299 3158 
Q 5318 3130 5306 3098 
L 4218 -205 
z
" transform="scale(0.015625)"/>
       <path id="NanumGothic-46" d="M 2733 1696 
Q 2733 1958 2681 2163 
Q 2630 2368 2522 2534 
Q 2285 2912 1837 2912 
Q 1376 2912 1088 2528 
Q 973 2355 896 2131 
Q 819 1907 813 1696 
L 2733 1696 
z
M 813 1331 
Q 806 1011 886 764 
Q 966 518 1120 352 
Q 1274 186 1488 96 
Q 1702 6 1965 6 
Q 2221 6 2445 54 
Q 2669 102 2861 211 
Q 2944 250 2944 166 
L 2944 -122 
Q 2944 -179 2874 -211 
Q 2662 -294 2432 -336 
Q 2202 -378 1933 -378 
Q 1146 -378 742 80 
Q 339 538 339 1459 
Q 339 2272 742 2771 
Q 1165 3277 1811 3277 
Q 2170 3277 2432 3149 
Q 2694 3021 2880 2765 
Q 3206 2310 3206 1549 
Q 3206 1466 3203 1421 
Q 3200 1376 3181 1357 
Q 3162 1338 3114 1334 
Q 3066 1331 2976 1331 
L 813 1331 
z
" transform="scale(0.015625)"/>
      </defs>
      <use xlink:href="#NanumGothic-2a"/>
      <use xlink:href="#NanumGothic-32" transform="translate(24.203125 0)"/>
      <use xlink:href="#NanumGothic-33" transform="translate(102.90625 0)"/>
      <use xlink:href="#NanumGothic-1" transform="translate(165.109375 0)"/>
      <use xlink:href="#NanumGothic-2d" transform="translate(193.109375 0)"/>
      <use xlink:href="#NanumGothic-50" transform="translate(241.515625 0)"/>
      <use xlink:href="#NanumGothic-58" transform="translate(302.109375 0)"/>
      <use xlink:href="#NanumGothic-46" transform="translate(386.90625 0)"/>
      <use xlink:href="#NanumGothic-53" transform="translate(441.40625 0)"/>
     </g>
    </g>
    <g id="line2d_18">
     <path d="M 331.813594 51.3 
L 341.813594 51.3 
L 351.813594 51.3 
" style="fill: none; stroke-dasharray: 5.55,2.4; stroke-dashoffset: 0; stroke: #1f77b4; stroke-width: 1.5"/>
    </g>
    <g id="text_16">
     <!-- IQR Upper -->
     <g transform="translate(359.813594 54.8) scale(0.1 -0.1)">
      <defs>
       <path id="NanumGothic-36" d="M 1088 1376 
Q 1088 768 1402 416 
Q 1754 26 2342 26 
Q 2944 26 3296 416 
Q 3456 589 3529 829 
Q 3603 1069 3603 1376 
L 3603 4384 
Q 3603 4474 3693 4474 
L 3987 4474 
Q 4077 4474 4077 4384 
L 4077 1376 
Q 4077 909 3923 553 
Q 3770 198 3482 -26 
Q 3014 -378 2342 -378 
Q 1677 -378 1210 -26 
Q 614 416 614 1376 
L 614 4384 
Q 614 4474 704 4474 
L 998 4474 
Q 1088 4474 1088 4384 
L 1088 1376 
z
" transform="scale(0.015625)"/>
       <path id="NanumGothic-51" d="M 2989 1504 
Q 2989 1766 2937 2012 
Q 2886 2259 2764 2451 
Q 2643 2643 2451 2761 
Q 2259 2880 1971 2880 
Q 1709 2880 1517 2771 
Q 1325 2662 1200 2473 
Q 1075 2285 1011 2035 
Q 947 1786 947 1504 
Q 947 762 1225 381 
Q 1504 0 1971 0 
Q 2214 0 2403 105 
Q 2592 211 2723 409 
Q 2854 608 2921 883 
Q 2989 1158 2989 1504 
z
M 518 3098 
Q 518 3187 608 3187 
L 851 3187 
Q 941 3187 941 3098 
L 909 2618 
Q 1037 2899 1341 3072 
Q 1645 3245 2048 3245 
Q 2426 3245 2691 3110 
Q 2957 2976 3126 2742 
Q 3296 2509 3376 2189 
Q 3456 1869 3456 1504 
Q 3456 1107 3363 768 
Q 3270 429 3094 179 
Q 2918 -70 2656 -214 
Q 2394 -358 2048 -358 
Q 1658 -358 1376 -208 
Q 1094 -58 947 211 
L 947 -1165 
Q 947 -1254 858 -1254 
L 614 -1254 
Q 576 -1254 547 -1228 
Q 518 -1203 518 -1165 
L 518 3098 
z
" transform="scale(0.015625)"/>
      </defs>
      <use xlink:href="#NanumGothic-2a"/>
      <use xlink:href="#NanumGothic-32" transform="translate(24.203125 0)"/>
      <use xlink:href="#NanumGothic-33" transform="translate(102.90625 0)"/>
      <use xlink:href="#NanumGothic-1" transform="translate(165.109375 0)"/>
      <use xlink:href="#NanumGothic-36" transform="translate(193.109375 0)"/>
      <use xlink:href="#NanumGothic-51" transform="translate(265.8125 0)"/>
      <use xlink:href="#NanumGothic-51" transform="translate(326.40625 0)"/>
      <use xlink:href="#NanumGothic-46" transform="translate(387 0)"/>
      <use xlink:href="#NanumGothic-53" transform="translate(441.5 0)"/>
     </g>
    </g>
    <g id="line2d_19">
     <path d="M 331.813594 66.3 
L 341.813594 66.3 
L 351.813594 66.3 
" style="fill: none; stroke-dasharray: 1.5,2.475; stroke-dashoffset: 0; stroke: #1f77b4; stroke-width: 1.5"/>
    </g>
    <g id="text_17">
     <!-- Domain Lower -->
     <g transform="translate(359.813594 69.8) scale(0.1 -0.1)">
      <defs>
       <path id="NanumGothic-4e" d="M 602 2374 
Q 602 2643 595 2800 
Q 589 2957 576 3098 
Q 576 3187 666 3187 
L 902 3187 
Q 992 3187 992 3098 
L 992 2752 
Q 1139 2989 1388 3126 
Q 1638 3264 2003 3264 
Q 2387 3264 2675 3075 
Q 2963 2886 3027 2522 
Q 3162 2886 3459 3075 
Q 3757 3264 4147 3264 
Q 4397 3264 4598 3174 
Q 4800 3085 4944 2928 
Q 5088 2771 5165 2560 
Q 5242 2349 5242 2112 
L 5242 -186 
Q 5242 -275 5152 -275 
L 4909 -275 
Q 4819 -275 4819 -192 
L 4819 2022 
Q 4819 2899 4083 2899 
Q 3859 2899 3683 2800 
Q 3507 2701 3382 2528 
Q 3258 2355 3197 2124 
Q 3136 1894 3142 1638 
L 3142 -186 
Q 3142 -275 3053 -275 
L 2797 -275 
Q 2707 -275 2707 -186 
L 2707 2022 
Q 2707 2899 1965 2899 
Q 1530 2899 1280 2617 
Q 1030 2336 1030 1875 
L 1030 -186 
Q 1030 -275 941 -275 
L 691 -275 
Q 602 -275 602 -186 
L 602 2374 
z
" transform="scale(0.015625)"/>
       <path id="NanumGothic-42" d="M 2566 1530 
L 2445 1530 
Q 2086 1542 1808 1500 
Q 1530 1459 1344 1389 
Q 1075 1293 940 1104 
Q 806 915 806 653 
Q 806 493 857 355 
Q 909 218 1018 141 
Q 1210 -13 1530 -13 
Q 1754 -13 1942 76 
Q 2131 166 2272 332 
Q 2413 499 2489 745 
Q 2566 992 2566 1312 
L 2566 1530 
z
M 742 2650 
Q 710 2630 681 2640 
Q 653 2650 653 2682 
L 653 2925 
Q 653 3014 742 3059 
Q 966 3181 1219 3229 
Q 1472 3277 1773 3277 
Q 2413 3277 2707 2973 
Q 3002 2669 3002 2054 
L 3002 448 
Q 3002 256 3008 105 
Q 3014 -45 3027 -186 
Q 3027 -275 2938 -275 
L 2707 -275 
Q 2618 -275 2618 -186 
L 2618 307 
Q 2483 -19 2166 -198 
Q 1850 -378 1478 -378 
Q 832 -378 531 0 
Q 429 128 377 297 
Q 326 467 326 634 
Q 326 1024 508 1305 
Q 691 1587 1069 1728 
Q 1530 1894 2483 1894 
L 2566 1894 
L 2566 2086 
Q 2566 2490 2384 2701 
Q 2202 2912 1773 2912 
Q 1485 2912 1229 2851 
Q 973 2790 742 2650 
z
" transform="scale(0.015625)"/>
      </defs>
      <use xlink:href="#NanumGothic-25"/>
      <use xlink:href="#NanumGothic-50" transform="translate(72.703125 0)"/>
      <use xlink:href="#NanumGothic-4e" transform="translate(133.296875 0)"/>
      <use xlink:href="#NanumGothic-42" transform="translate(224.09375 0)"/>
      <use xlink:href="#NanumGothic-4a" transform="translate(278.59375 0)"/>
      <use xlink:href="#NanumGothic-4f" transform="translate(302.796875 0)"/>
      <use xlink:href="#NanumGothic-1" transform="translate(363.390625 0)"/>
      <use xlink:href="#NanumGothic-2d" transform="translate(391.390625 0)"/>
      <use xlink:href="#NanumGothic-50" transform="translate(439.796875 0)"/>
      <use xlink:href="#NanumGothic-58" transform="translate(500.390625 0)"/>
      <use xlink:href="#NanumGothic-46" transform="translate(585.1875 0)"/>
      <use xlink:href="#NanumGothic-53" transform="translate(639.6875 0)"/>
     </g>
    </g>
    <g id="line2d_20">
     <path d="M 331.813594 81.3 
L 341.813594 81.3 
L 351.813594 81.3 
" style="fill: none; stroke-dasharray: 1.5,2.475; stroke-dashoffset: 0; stroke: #1f77b4; stroke-width: 1.5"/>
    </g>
    <g id="text_18">
     <!-- Domain Upper -->
     <g transform="translate(359.813594 84.8) scale(0.1 -0.1)">
      <use xlink:href="#NanumGothic-25"/>
      <use xlink:href="#NanumGothic-50" transform="translate(72.703125 0)"/>
      <use xlink:href="#NanumGothic-4e" transform="translate(133.296875 0)"/>
      <use xlink:href="#NanumGothic-42" transform="translate(224.09375 0)"/>
      <use xlink:href="#NanumGothic-4a" transform="translate(278.59375 0)"/>
      <use xlink:href="#NanumGothic-4f" transform="translate(302.796875 0)"/>
      <use xlink:href="#NanumGothic-1" transform="translate(363.390625 0)"/>
      <use xlink:href="#NanumGothic-36" transform="translate(391.390625 0)"/>
      <use xlink:href="#NanumGothic-51" transform="translate(464.09375 0)"/>
      <use xlink:href="#NanumGothic-51" transform="translate(524.6875 0)"/>
      <use xlink:href="#NanumGothic-46" transform="translate(585.28125 0)"/>
      <use xlink:href="#NanumGothic-53" transform="translate(639.78125 0)"/>
     </g>
    </g>
   </g>
  </g>
  <g id="axes_2">
   <g id="patch_75">
    <path d="M 52.4375 530.6 
L 706.7975 530.6 
L 706.7975 414.1 
L 52.4375 414.1 
z
" style="fill: #ffffff"/>
   </g>
   <g id="matplotlib.axis_3">
    <g id="xtick_7">
     <g id="line2d_21">
      <g>
       <use xlink:href="#mede54884b3" x="127.591268" y="530.6" style="stroke: #000000; stroke-width: 0.8"/>
      </g>
     </g>
     <g id="text_19">
      <!-- -10 -->
      <g transform="translate(119.717049 545.6) scale(0.1 -0.1)">
       <use xlink:href="#NanumGothic-e"/>
       <use xlink:href="#NanumGothic-12" transform="translate(36.296875 0)"/>
       <use xlink:href="#NanumGothic-11" transform="translate(96.890625 0)"/>
      </g>
     </g>
    </g>
    <g id="xtick_8">
     <g id="line2d_22">
      <g>
       <use xlink:href="#mede54884b3" x="241.116598" y="530.6" style="stroke: #000000; stroke-width: 0.8"/>
      </g>
     </g>
     <g id="text_20">
      <!-- 0 -->
      <g transform="translate(238.08691 545.6) scale(0.1 -0.1)">
       <use xlink:href="#NanumGothic-11"/>
      </g>
     </g>
    </g>
    <g id="xtick_9">
     <g id="line2d_23">
      <g>
       <use xlink:href="#mede54884b3" x="354.641927" y="530.6" style="stroke: #000000; stroke-width: 0.8"/>
      </g>
     </g>
     <g id="text_21">
      <!-- 10 -->
      <g transform="translate(348.582552 545.6) scale(0.1 -0.1)">
       <use xlink:href="#NanumGothic-12"/>
       <use xlink:href="#NanumGothic-11" transform="translate(60.59375 0)"/>
      </g>
     </g>
    </g>
    <g id="xtick_10">
     <g id="line2d_24">
      <g>
       <use xlink:href="#mede54884b3" x="468.167257" y="530.6" style="stroke: #000000; stroke-width: 0.8"/>
      </g>
     </g>
     <g id="text_22">
      <!-- 20 -->
      <g transform="translate(462.107882 545.6) scale(0.1 -0.1)">
       <use xlink:href="#NanumGothic-13"/>
       <use xlink:href="#NanumGothic-11" transform="translate(60.59375 0)"/>
      </g>
     </g>
    </g>
    <g id="xtick_11">
     <g id="line2d_25">
      <g>
       <use xlink:href="#mede54884b3" x="581.692587" y="530.6" style="stroke: #000000; stroke-width: 0.8"/>
      </g>
     </g>
     <g id="text_23">
      <!-- 30 -->
      <g transform="translate(575.633212 545.6) scale(0.1 -0.1)">
       <defs>
        <path id="NanumGothic-14" d="M 493 -192 
Q 397 -166 410 -45 
L 435 205 
Q 448 282 538 243 
Q 806 134 1046 89 
Q 1286 45 1606 38 
Q 2112 32 2458 294 
Q 2861 563 2861 1082 
Q 2861 1990 1498 1990 
L 1165 1990 
Q 1082 1990 1082 2061 
L 1082 2298 
Q 1082 2381 1165 2381 
L 1197 2381 
Q 1882 2381 2266 2528 
Q 2848 2752 2848 3334 
Q 2848 3520 2749 3677 
Q 2650 3834 2483 3942 
Q 2330 4032 2138 4083 
Q 1946 4134 1734 4134 
Q 1517 4134 1254 4076 
Q 992 4019 749 3923 
Q 666 3891 653 3974 
L 627 4211 
Q 608 4301 710 4339 
Q 998 4435 1248 4480 
Q 1498 4525 1779 4525 
Q 2426 4525 2835 4250 
Q 3302 3936 3302 3334 
Q 3302 2906 2995 2592 
Q 2739 2317 2330 2189 
Q 2534 2163 2710 2080 
Q 2886 1997 3014 1850 
Q 3162 1690 3238 1488 
Q 3315 1286 3315 1043 
Q 3315 723 3184 464 
Q 3053 205 2810 19 
Q 2573 -154 2265 -253 
Q 1958 -352 1581 -346 
Q 1242 -339 995 -307 
Q 749 -275 493 -192 
z
" transform="scale(0.015625)"/>
       </defs>
       <use xlink:href="#NanumGothic-14"/>
       <use xlink:href="#NanumGothic-11" transform="translate(60.59375 0)"/>
      </g>
     </g>
    </g>
    <g id="xtick_12">
     <g id="line2d_26">
      <g>
       <use xlink:href="#mede54884b3" x="695.217916" y="530.6" style="stroke: #000000; stroke-width: 0.8"/>
      </g>
     </g>
     <g id="text_24">
      <!-- 40 -->
      <g transform="translate(689.158541 545.6) scale(0.1 -0.1)">
       <use xlink:href="#NanumGothic-15"/>
       <use xlink:href="#NanumGothic-11" transform="translate(60.59375 0)"/>
      </g>
     </g>
    </g>
    <g id="text_25">
     <!-- 기온(°C) -->
     <g transform="translate(360.997969 559.6) scale(0.1 -0.1)">
      <use xlink:href="#NanumGothic-4dd"/>
      <use xlink:href="#NanumGothic-9e1" transform="translate(94 0)"/>
      <use xlink:href="#NanumGothic-9" transform="translate(188 0)"/>
      <use xlink:href="#NanumGothic-8a" transform="translate(224.296875 0)"/>
      <use xlink:href="#NanumGothic-24" transform="translate(268.890625 0)"/>
      <use xlink:href="#NanumGothic-a" transform="translate(336.09375 0)"/>
     </g>
    </g>
   </g>
   <g id="matplotlib.axis_4">
    <g id="ytick_6">
     <g id="line2d_27">
      <g>
       <use xlink:href="#m3b49d70286" x="52.4375" y="472.35" style="stroke: #000000; stroke-width: 0.8"/>
      </g>
     </g>
    </g>
   </g>
   <g id="patch_76">
    <path d="M 312.637556 425.75 
L 312.637556 518.95 
L 505.630616 518.95 
L 505.630616 425.75 
L 312.637556 425.75 
z
" clip-path="url(#pa2f54e47fc)" style="fill: #3274a1; stroke: #3f3f3f; stroke-linejoin: miter"/>
   </g>
   <g id="line2d_28">
    <path d="M 312.637556 472.35 
L 82.181136 472.35 
" clip-path="url(#pa2f54e47fc)" style="fill: none; stroke: #3f3f3f"/>
   </g>
   <g id="line2d_29">
    <path d="M 505.630616 472.35 
L 677.053864 472.35 
" clip-path="url(#pa2f54e47fc)" style="fill: none; stroke: #3f3f3f"/>
   </g>
   <g id="line2d_30">
    <path d="M 82.181136 449.05 
L 82.181136 495.65 
" clip-path="url(#pa2f54e47fc)" style="fill: none; stroke: #3f3f3f; stroke-linecap: square"/>
   </g>
   <g id="line2d_31">
    <path d="M 677.053864 449.05 
L 677.053864 495.65 
" clip-path="url(#pa2f54e47fc)" style="fill: none; stroke: #3f3f3f; stroke-linecap: square"/>
   </g>
   <g id="line2d_32"/>
   <g id="line2d_33">
    <path d="M 418.216112 425.75 
L 418.216112 518.95 
" clip-path="url(#pa2f54e47fc)" style="fill: none; stroke: #3f3f3f"/>
   </g>
   <g id="patch_77">
    <path d="M 52.4375 530.6 
L 52.4375 414.1 
" style="fill: none; stroke: #000000; stroke-width: 0.8; stroke-linejoin: miter; stroke-linecap: square"/>
   </g>
   <g id="patch_78">
    <path d="M 706.7975 530.6 
L 706.7975 414.1 
" style="fill: none; stroke: #000000; stroke-width: 0.8; stroke-linejoin: miter; stroke-linecap: square"/>
   </g>
   <g id="patch_79">
    <path d="M 52.4375 530.6 
L 706.7975 530.6 
" style="fill: none; stroke: #000000; stroke-width: 0.8; stroke-linejoin: miter; stroke-linecap: square"/>
   </g>
   <g id="patch_80">
    <path d="M 52.4375 414.1 
L 706.7975 414.1 
" style="fill: none; stroke: #000000; stroke-width: 0.8; stroke-linejoin: miter; stroke-linecap: square"/>
   </g>
  </g>
 </g>
 <defs>
  <clipPath id="p35de490345">
   <rect x="52.4375" y="22.8" width="654.36" height="349.5"/>
  </clipPath>
  <clipPath id="pa2f54e47fc">
   <rect x="52.4375" y="414.1" width="654.36" height="116.5"/>
  </clipPath>
 </defs>
</svg>
